<mxfile host="app.diagrams.net" modified="2025-06-13T12:00:00.000Z" agent="AI Assistant" etag="LinOSS-Data-Flow" version="24.5.1">
  <diagram id="DataFlowDiagram" name="LinOSS Data Flow">
    <mxGraphModel dx="1422" dy="794" grid="1" gridSize="10" guides="1" tooltips="1" connect="1" arrows="1" fold="1" page="1" pageScale="1" pageWidth="1169" pageHeight="827" math="0" shadow="0">
      <root>
        <mxCell id="0" />
        <mxCell id="1" parent="0" />
        
        <!-- Title -->
        <mxCell id="title" value="LinOSS Brain Dynamics - Data Flow Architecture" style="text;html=1;strokeColor=none;fillColor=none;align=center;verticalAlign=middle;whiteSpace=wrap;rounded=0;fontSize=18;fontStyle=1;fontColor=#2E3440;" vertex="1" parent="1">
          <mxGeometry x="200" y="30" width="769" height="50" as="geometry" />
        </mxCell>
        
        <!-- Input Layer -->
        <mxCell id="inputLayer" value="Input Layer" style="rounded=1;whiteSpace=wrap;html=1;fontSize=14;fontStyle=1;fillColor=#E3F2FD;strokeColor=#1976D2;strokeWidth=2;verticalAlign=top;" vertex="1" parent="1">
          <mxGeometry x="50" y="120" width="1070" height="100" as="geometry" />
        </mxCell>
        
        <!-- Initial States -->
        <mxCell id="pfcInit" value="PFC Initial&#xa;(x₀, y₀, z₀)" style="rounded=1;whiteSpace=wrap;html=1;fontSize=11;fillColor=#BBDEFB;strokeColor=#1976D2;" vertex="1" parent="1">
          <mxGeometry x="100" y="150" width="100" height="50" as="geometry" />
        </mxCell>
        
        <mxCell id="dmnInit" value="DMN Initial&#xa;(x₀, y₀, z₀)" style="rounded=1;whiteSpace=wrap;html=1;fontSize=11;fillColor=#BBDEFB;strokeColor=#1976D2;" vertex="1" parent="1">
          <mxGeometry x="250" y="150" width="100" height="50" as="geometry" />
        </mxCell>
        
        <mxCell id="thalInit" value="Thalamus Initial&#xa;(x₀, y₀, z₀)" style="rounded=1;whiteSpace=wrap;html=1;fontSize=11;fillColor=#BBDEFB;strokeColor=#1976D2;" vertex="1" parent="1">
          <mxGeometry x="400" y="150" width="100" height="50" as="geometry" />
        </mxCell>
        
        <!-- System Parameters -->
        <mxCell id="sysParams" value="System Parameters&#xa;dt=0.005, coupling=0.1&#xa;dLinOSS_factor=0.002" style="rounded=1;whiteSpace=wrap;html=1;fontSize=11;fillColor=#C8E6C9;strokeColor=#388E3C;" vertex="1" parent="1">
          <mxGeometry x="550" y="150" width="150" height="50" as="geometry" />
        </mxCell>
        
        <!-- User Controls -->
        <mxCell id="userControls" value="User Controls&#xa;Pause (p), Toggle (l)&#xa;Quit (q), Coupling (±)" style="rounded=1;whiteSpace=wrap;html=1;fontSize=11;fillColor=#FFE0B2;strokeColor=#F57C00;" vertex="1" parent="1">
          <mxGeometry x="750" y="150" width="150" height="50" as="geometry" />
        </mxCell>
        
        <!-- Real-time Display -->
        <mxCell id="realTimeDisplay" value="Real-time Status&#xa;Time, Energy, FPS&#xa;Region States" style="rounded=1;whiteSpace=wrap;html=1;fontSize=11;fillColor=#F8BBD9;strokeColor=#C2185B;" vertex="1" parent="1">
          <mxGeometry x="950" y="150" width="120" height="50" as="geometry" />
        </mxCell>
        
        <!-- Processing Layer -->
        <mxCell id="processingLayer" value="Processing Layer" style="rounded=1;whiteSpace=wrap;html=1;fontSize=14;fontStyle=1;fillColor=#FFF3E0;strokeColor=#F57C00;strokeWidth=2;verticalAlign=top;" vertex="1" parent="1">
          <mxGeometry x="50" y="280" width="1070" height="200" as="geometry" />
        </mxCell>
        
        <!-- Lorenz Computation -->
        <mxCell id="lorenzComp" value="Lorenz Dynamics&#xa;dx/dt = σ(y-x)&#xa;dy/dt = x(ρ-z)-y&#xa;dz/dt = xy-βz" style="rounded=1;whiteSpace=wrap;html=1;fontSize=10;fillColor=#FFCC80;strokeColor=#F57C00;" vertex="1" parent="1">
          <mxGeometry x="100" y="320" width="120" height="80" as="geometry" />
        </mxCell>
        
        <!-- dLinOSS Processing -->
        <mxCell id="dlinossProc" value="dLinOSS Network&#xa;3→8→3 topology&#xa;Oscillatory dynamics&#xa;Damping modulation" style="rounded=1;whiteSpace=wrap;html=1;fontSize=10;fillColor=#E1F5FE;strokeColor=#0277BD;" vertex="1" parent="1">
          <mxGeometry x="280" y="320" width="120" height="80" as="geometry" />
        </mxCell>
        
        <!-- Coupling Matrix -->
        <mxCell id="couplingMatrix" value="Coupling Matrix&#xa;Cross-region influence&#xa;Bidirectional&#xa;Weight × position" style="rounded=1;whiteSpace=wrap;html=1;fontSize=10;fillColor=#FCE4EC;strokeColor=#C2185B;" vertex="1" parent="1">
          <mxGeometry x="460" y="320" width="120" height="80" as="geometry" />
        </mxCell>
        
        <!-- Integration -->
        <mxCell id="integration" value="Euler Integration&#xa;x(t+dt) = x(t) + dx*dt&#xa;Energy injection&#xa;Stability checks" style="rounded=1;whiteSpace=wrap;html=1;fontSize=10;fillColor=#E8F5E8;strokeColor=#388E3C;" vertex="1" parent="1">
          <mxGeometry x="640" y="320" width="120" height="80" as="geometry" />
        </mxCell>
        
        <!-- State Update -->
        <mxCell id="stateUpdate" value="State Update&#xa;Position vectors&#xa;Trajectory buffers&#xa;Energy calculation" style="rounded=1;whiteSpace=wrap;html=1;fontSize=10;fillColor=#F3E5F5;strokeColor=#7B1FA2;" vertex="1" parent="1">
          <mxGeometry x="820" y="320" width="120" height="80" as="geometry" />
        </mxCell>
        
        <!-- Visualization Prep -->
        <mxCell id="vizPrep" value="Visualization Prep&#xa;2D projection (x,y)&#xa;Scaling & bounds&#xa;Color mapping" style="rounded=1;whiteSpace=wrap;html=1;fontSize=10;fillColor=#FFF8E1;strokeColor=#FBC02D;" vertex="1" parent="1">
          <mxGeometry x="1000" y="320" width="120" height="80" as="geometry" />
        </mxCell>
        
        <!-- Trajectory Management -->
        <mxCell id="trajMgmt" value="Trajectory Buffers&#xa;Max 2000 points/region&#xa;FIFO circular buffer&#xa;Memory efficient" style="rounded=1;whiteSpace=wrap;html=1;fontSize=10;fillColor=#E0F2F1;strokeColor=#00695C;" vertex="1" parent="1">
          <mxGeometry x="280" y="420" width="240" height="40" as="geometry" />
        </mxCell>
        
        <!-- Output Layer -->
        <mxCell id="outputLayer" value="Output Layer" style="rounded=1;whiteSpace=wrap;html=1;fontSize=14;fontStyle=1;fillColor=#F1F8E9;strokeColor=#689F38;strokeWidth=2;verticalAlign=top;" vertex="1" parent="1">
          <mxGeometry x="50" y="520" width="1070" height="150" as="geometry" />
        </mxCell>
        
        <!-- TUI Rendering -->
        <mxCell id="tuiRender" value="TUI Rendering&#xa;Ratatui framework&#xa;Real-time display&#xa;33 FPS target" style="rounded=1;whiteSpace=wrap;html=1;fontSize=11;fillColor=#DCEDC8;strokeColor=#689F38;" vertex="1" parent="1">
          <mxGeometry x="100" y="560" width="150" height="80" as="geometry" />
        </mxCell>
        
        <!-- Phase Space Display -->
        <mxCell id="phaseDisplay" value="Phase Space&#xa;3 region plots&#xa;Color-coded trails&#xa;Auto-scaling" style="rounded=1;whiteSpace=wrap;html=1;fontSize=11;fillColor=#E8F5E8;strokeColor=#4CAF50;" vertex="1" parent="1">
          <mxGeometry x="300" y="560" width="150" height="80" as="geometry" />
        </mxCell>
        
        <!-- Status Panel -->
        <mxCell id="statusPanel" value="Status Panel&#xa;Time counter&#xa;Energy levels&#xa;Control hints" style="rounded=1;whiteSpace=wrap;html=1;fontSize=11;fillColor=#F9FBE7;strokeColor=#827717;" vertex="1" parent="1">
          <mxGeometry x="500" y="560" width="150" height="80" as="geometry" />
        </mxCell>
        
        <!-- Data Export -->
        <mxCell id="dataExport" value="Data Export&#xa;JSON logging&#xa;CSV trajectories&#xa;Analysis ready" style="rounded=1;whiteSpace=wrap;html=1;fontSize=11;fillColor=#FFF3E0;strokeColor=#FF8F00;" vertex="1" parent="1">
          <mxGeometry x="700" y="560" width="150" height="80" as="geometry" />
        </mxCell>
        
        <!-- Performance Monitor -->
        <mxCell id="perfMonitor" value="Performance&#xa;FPS monitoring&#xa;Memory tracking&#xa;Error handling" style="rounded=1;whiteSpace=wrap;html=1;fontSize=11;fillColor=#EFEBE9;strokeColor=#6D4C41;" vertex="1" parent="1">
          <mxGeometry x="900" y="560" width="150" height="80" as="geometry" />
        </mxCell>
        
        <!-- Data Flow Arrows -->
        <!-- Input to Processing -->
        <mxCell id="flow1" value="" style="edgeStyle=orthogonalEdgeStyle;rounded=0;orthogonalLoop=1;jettySize=auto;html=1;strokeColor=#2196F3;strokeWidth=3;endArrow=classic;" edge="1" parent="1" source="inputLayer" target="processingLayer">
          <mxGeometry relative="1" as="geometry" />
        </mxCell>
        
        <!-- Processing Flow -->
        <mxCell id="flow2" value="" style="edgeStyle=orthogonalEdgeStyle;rounded=0;orthogonalLoop=1;jettySize=auto;html=1;strokeColor=#FF5722;strokeWidth=2;endArrow=classic;" edge="1" parent="1" source="lorenzComp" target="dlinossProc">
          <mxGeometry relative="1" as="geometry" />
        </mxCell>
        
        <mxCell id="flow3" value="" style="edgeStyle=orthogonalEdgeStyle;rounded=0;orthogonalLoop=1;jettySize=auto;html=1;strokeColor=#FF5722;strokeWidth=2;endArrow=classic;" edge="1" parent="1" source="dlinossProc" target="couplingMatrix">
          <mxGeometry relative="1" as="geometry" />
        </mxCell>
        
        <mxCell id="flow4" value="" style="edgeStyle=orthogonalEdgeStyle;rounded=0;orthogonalLoop=1;jettySize=auto;html=1;strokeColor=#FF5722;strokeWidth=2;endArrow=classic;" edge="1" parent="1" source="couplingMatrix" target="integration">
          <mxGeometry relative="1" as="geometry" />
        </mxCell>
        
        <mxCell id="flow5" value="" style="edgeStyle=orthogonalEdgeStyle;rounded=0;orthogonalLoop=1;jettySize=auto;html=1;strokeColor=#FF5722;strokeWidth=2;endArrow=classic;" edge="1" parent="1" source="integration" target="stateUpdate">
          <mxGeometry relative="1" as="geometry" />
        </mxCell>
        
        <mxCell id="flow6" value="" style="edgeStyle=orthogonalEdgeStyle;rounded=0;orthogonalLoop=1;jettySize=auto;html=1;strokeColor=#FF5722;strokeWidth=2;endArrow=classic;" edge="1" parent="1" source="stateUpdate" target="vizPrep">
          <mxGeometry relative="1" as="geometry" />
        </mxCell>
        
        <!-- Processing to Output -->
        <mxCell id="flow7" value="" style="edgeStyle=orthogonalEdgeStyle;rounded=0;orthogonalLoop=1;jettySize=auto;html=1;strokeColor=#4CAF50;strokeWidth=3;endArrow=classic;" edge="1" parent="1" source="processingLayer" target="outputLayer">
          <mxGeometry relative="1" as="geometry" />
        </mxCell>
        
        <!-- Feedback Loop -->
        <mxCell id="feedback" value="Feedback Loop" style="edgeStyle=orthogonalEdgeStyle;rounded=0;orthogonalLoop=1;jettySize=auto;html=1;strokeColor=#9C27B0;strokeWidth=2;endArrow=classic;dashed=1;" edge="1" parent="1" source="stateUpdate" target="lorenzComp">
          <mxGeometry relative="1" as="geometry">
            <mxPoint x="100" y="400" as="targetPoint" />
            <Array as="points">
              <mxPoint x="880" y="450" />
              <mxPoint x="160" y="450" />
            </Array>
          </mxGeometry>
        </mxCell>
        
        <!-- Data Rates -->
        <mxCell id="dataRates" value="Data Throughput Rates" style="rounded=1;whiteSpace=wrap;html=1;fontSize=12;fontStyle=1;fillColor=#E8EAF6;strokeColor=#3F51B5;strokeWidth=1;" vertex="1" parent="1">
          <mxGeometry x="50" y="720" width="300" height="80" as="geometry" />
        </mxCell>
        
        <mxCell id="ratesContent" value="• Input: 3×3 positions @ 33 Hz = 297 values/sec&#xa;• Processing: ~471 parameters × 33 Hz&#xa;• Output: 6000 display points @ 33 Hz&#xa;• Trajectories: Up to 6000 points stored" style="text;html=1;strokeColor=none;fillColor=none;align=left;verticalAlign=middle;whiteSpace=wrap;rounded=0;fontSize=10;" vertex="1" parent="1">
          <mxGeometry x="60" y="740" width="280" height="40" as="geometry" />
        </mxCell>
        
        <!-- Memory Usage -->
        <mxCell id="memoryUsage" value="Memory Footprint" style="rounded=1;whiteSpace=wrap;html=1;fontSize=12;fontStyle=1;fillColor=#FFF8E1;strokeColor=#FBC02D;strokeWidth=1;" vertex="1" parent="1">
          <mxGeometry x="400" y="720" width="300" height="80" as="geometry" />
        </mxCell>
        
        <mxCell id="memoryContent" value="• dLinOSS weights: ~1.9KB per layer × 3 = ~5.7KB&#xa;• Trajectory buffers: 2000 × 8 bytes × 3 = ~48KB&#xa;• Display buffers: ~24KB&#xa;• Total runtime memory: ~100KB" style="text;html=1;strokeColor=none;fillColor=none;align=left;verticalAlign=middle;whiteSpace=wrap;rounded=0;fontSize=10;" vertex="1" parent="1">
          <mxGeometry x="410" y="740" width="280" height="40" as="geometry" />
        </mxCell>
        
        <!-- Performance Characteristics -->
        <mxCell id="perfChar" value="Performance Characteristics" style="rounded=1;whiteSpace=wrap;html=1;fontSize=12;fontStyle=1;fillColor=#E8F5E8;strokeColor=#4CAF50;strokeWidth=1;" vertex="1" parent="1">
          <mxGeometry x="750" y="720" width="370" height="80" as="geometry" />
        </mxCell>
        
        <mxCell id="perfContent" value="• Target FPS: 33.3 Hz (30ms frame time)&#xa;• CPU Usage: ~15% single core (optimized)&#xa;• Chaos sustainability: ✅ Maintained long-term&#xa;• Real-time capability: ✅ Confirmed stable" style="text;html=1;strokeColor=none;fillColor=none;align=left;verticalAlign=middle;whiteSpace=wrap;rounded=0;fontSize=10;" vertex="1" parent="1">
          <mxGeometry x="760" y="740" width="350" height="40" as="geometry" />
        </mxCell>
        
      </root>
    </mxGraphModel>
  </diagram>
</mxfile>
